<svg width="30" height="30" viewBox="0 0 30 30" fill="none" xmlns="http://www.w3.org/2000/svg">
<path d="M16.6164 12.8083C16.4734 12.8054 16.3314 12.832 16.1992 12.8866C16.067 12.9412 15.9475 13.0225 15.8482 13.1254C15.749 13.2284 15.6721 13.3508 15.6223 13.4849C15.5726 13.619 15.5512 13.7619 15.5593 13.9047C15.5593 14.1911 15.6731 14.4657 15.8756 14.6682C16.0781 14.8707 16.3527 14.9845 16.6391 14.9845C16.9255 14.9845 17.2001 14.8707 17.4026 14.6682C17.6051 14.4657 17.7189 14.1911 17.7189 13.9047C17.7263 13.7582 17.7029 13.6118 17.65 13.4751C17.5972 13.3383 17.5161 13.2141 17.4121 13.1107C17.3081 13.0073 17.1835 12.9269 17.0465 12.8748C16.9094 12.8227 16.7629 12.8001 16.6164 12.8083Z" fill="#B3B3B3"/>
<path d="M27.2877 5.13385C26.7823 4.62688 26.1816 4.22495 25.5201 3.95124C24.8586 3.67753 24.1495 3.53745 23.4337 3.53908H6.58893C5.87322 3.53848 5.16441 3.67901 4.50307 3.95263C3.84172 4.22624 3.24081 4.62758 2.73473 5.13366C2.22864 5.63975 1.82731 6.24066 1.55369 6.902C1.28007 7.56335 1.13954 8.27216 1.14014 8.98787V17.0946C1.13954 17.8103 1.28007 18.5191 1.55369 19.1805C1.82731 19.8418 2.22864 20.4427 2.73473 20.9488C3.24081 21.4549 3.84172 21.8562 4.50307 22.1299C5.16441 22.4035 5.87322 22.544 6.58893 22.5434H12.8019L14.596 26.1921C14.6252 26.2791 14.6809 26.3548 14.7555 26.4085C14.83 26.4621 14.9195 26.491 15.0113 26.491C15.1031 26.491 15.1926 26.4621 15.2672 26.4085C15.3417 26.3548 15.3975 26.2791 15.4266 26.1921L17.2207 22.5374H23.4337C24.1489 22.538 24.8572 22.3976 25.5182 22.1244C26.1791 21.8512 26.7798 21.4504 27.2858 20.9449C27.7918 20.4395 28.1932 19.8393 28.4672 19.1786C28.7412 18.518 28.8823 17.8098 28.8825 17.0946V8.98787C28.8841 8.27202 28.744 7.56292 28.4703 6.90146C28.1966 6.24 27.7947 5.63925 27.2877 5.13385ZM7.25342 16.5268C6.97591 16.5387 6.6998 16.4814 6.4499 16.3601C6.2 16.2389 5.98415 16.0574 5.82175 15.8321H5.79155V16.3637H4.09711V9.22044H5.82175V11.9388C6.00587 11.7349 6.23172 11.5729 6.48396 11.464C6.73621 11.3551 7.00893 11.3017 7.28363 11.3075C7.61091 11.318 7.93275 11.3941 8.23006 11.5313C8.52737 11.6686 8.79408 11.8641 9.01438 12.1064C9.23467 12.3487 9.40406 12.6327 9.51249 12.9417C9.62091 13.2507 9.66617 13.5783 9.64558 13.9051C9.6647 14.2352 9.61759 14.5658 9.50703 14.8775C9.39646 15.1892 9.22468 15.4756 9.00178 15.7199C8.77889 15.9641 8.50938 16.1614 8.20913 16.3C7.90887 16.4385 7.58393 16.5157 7.25342 16.5268ZM12.669 16.3607H11.0078V12.2439C11.0078 11.4797 10.8749 10.8152 10.2104 10.7155V9.05432C11.6723 9.05432 12.669 10.1115 12.669 11.9116V16.3607ZM16.6559 16.4936C16.2937 16.5262 15.9286 16.483 15.584 16.3668C15.2393 16.2506 14.9227 16.0638 14.6542 15.8185C14.3858 15.5731 14.1713 15.2745 14.0246 14.9417C13.8779 14.6089 13.8022 14.2492 13.8022 13.8854C13.8022 13.5217 13.8779 13.162 14.0246 12.8292C14.1713 12.4964 14.3858 12.1978 14.6542 11.9524C14.9227 11.7071 15.2393 11.5203 15.584 11.4041C15.9286 11.2879 16.2937 11.2447 16.6559 11.2773C17.0183 11.2512 17.3823 11.2994 17.7254 11.419C18.0685 11.5386 18.3835 11.7271 18.6511 11.9729C18.9187 12.2187 19.1332 12.5167 19.2815 12.8484C19.4297 13.1802 19.5086 13.5387 19.5132 13.9021C19.5111 14.2649 19.4338 14.6233 19.2859 14.9547C19.1381 15.286 18.9231 15.583 18.6545 15.8269C18.3859 16.0709 18.0695 16.2563 17.7255 16.3716C17.3815 16.4869 17.0173 16.5294 16.6559 16.4966V16.4936ZM25.8258 15.9287C25.8258 17.9887 24.7959 19.0186 23.0018 19.0186H22.6695V17.4601H23.0018C23.8988 17.4601 24.1646 16.8953 24.1646 16.0647V15.8321C23.9779 16.0438 23.7476 16.2128 23.4896 16.3275C23.2316 16.4422 22.9519 16.4998 22.6695 16.4966C22.3508 16.4935 22.036 16.4256 21.7443 16.2971C21.4526 16.1687 21.19 15.9822 20.9725 15.7492C20.755 15.5162 20.5871 15.2414 20.4791 14.9415C20.371 14.6417 20.325 14.3229 20.3438 14.0048C20.3217 13.6694 20.3676 13.3331 20.4787 13.016C20.5898 12.6988 20.7639 12.4074 20.9904 12.1592C21.2169 11.9109 21.4912 11.711 21.7969 11.5714C22.1025 11.4318 22.4333 11.3554 22.7692 11.3468C23.0396 11.3259 23.3107 11.3763 23.5556 11.4928C23.8004 11.6094 24.0104 11.7882 24.1646 12.0113H24.1978V11.4797L25.8258 11.5129V15.9287Z" fill="#B3B3B3"/>
<path d="M23.1677 12.7748C23.0217 12.7674 22.8759 12.7907 22.7395 12.8432C22.6032 12.8957 22.4793 12.9762 22.376 13.0795C22.2727 13.1828 22.1922 13.3067 22.1397 13.443C22.0872 13.5794 22.0639 13.7252 22.0713 13.8712C22.0612 14.0177 22.0827 14.1648 22.1342 14.3023C22.1858 14.4399 22.2662 14.5649 22.3701 14.6688C22.474 14.7726 22.5989 14.8531 22.7365 14.9046C22.8741 14.9561 23.0211 14.9776 23.1677 14.9676C23.3121 14.9761 23.4567 14.9532 23.5914 14.9006C23.7262 14.8479 23.848 14.7667 23.9484 14.6625C24.0489 14.5584 24.1256 14.4337 24.1733 14.2971C24.221 14.1605 24.2385 14.0152 24.2248 13.8712C24.2358 13.7277 24.2163 13.5836 24.1676 13.4482C24.1189 13.3129 24.0421 13.1893 23.9422 13.0858C23.8424 12.9822 23.7217 12.901 23.5882 12.8474C23.4547 12.7938 23.3114 12.769 23.1677 12.7748Z" fill="#B3B3B3"/>
<path d="M6.8547 15.0014C7.46023 15.0014 7.95111 14.5105 7.95111 13.905C7.95111 13.2995 7.46023 12.8086 6.8547 12.8086C6.24918 12.8086 5.7583 13.2995 5.7583 13.905C5.7583 14.5105 6.24918 15.0014 6.8547 15.0014Z" fill="#B3B3B3"/>
</svg>
