<svg width="20" height="20" viewBox="0 0 20 20" fill="none" xmlns="http://www.w3.org/2000/svg">
<path fill-rule="evenodd" clip-rule="evenodd" d="M10.125 2C7.97012 2 5.90349 2.85602 4.37976 4.37976C2.85602 5.90349 2 7.97012 2 10.125C2 12.2799 2.85602 14.3465 4.37976 15.8702C5.90349 17.394 7.97012 18.25 10.125 18.25C12.2799 18.25 14.3465 17.394 15.8702 15.8702C17.394 14.3465 18.25 12.2799 18.25 10.125C18.25 7.97012 17.394 5.90349 15.8702 4.37976C14.3465 2.85602 12.2799 2 10.125 2V2ZM10.125 17C8.30164 17 6.55295 16.2757 5.26364 14.9864C3.97433 13.697 3.25 11.9484 3.25 10.125C3.25 8.30164 3.97433 6.55295 5.26364 5.26364C6.55295 3.97433 8.30164 3.25 10.125 3.25C11.9484 3.25 13.697 3.97433 14.9864 5.26364C16.2757 6.55295 17 8.30164 17 10.125C17 11.9484 16.2757 13.697 14.9864 14.9864C13.697 16.2757 11.9484 17 10.125 17V17ZM12.0625 6.475C11.8465 6.25013 11.5871 6.07151 11.3 5.95C10.9388 5.80536 10.5514 5.73726 10.1625 5.75C9.78501 5.74315 9.41028 5.81554 9.0625 5.9625C8.76375 6.0875 8.5 6.28 8.2875 6.525C8.08049 6.75015 7.91917 7.01335 7.8125 7.3C7.71332 7.59117 7.65035 7.89345 7.625 8.2H9.1625C9.16958 8.00161 9.23276 7.80929 9.34471 7.64535C9.45666 7.4814 9.61279 7.35256 9.795 7.27375C9.91577 7.22617 10.0454 7.20528 10.175 7.2125C10.2868 7.19473 10.4007 7.19473 10.5125 7.2125C10.6152 7.25134 10.7088 7.31091 10.7875 7.3875C10.8743 7.46265 10.9428 7.55673 10.9875 7.6625C11.0387 7.7808 11.0643 7.90861 11.0625 8.0375C11.0625 8.25375 11.0163 8.46625 10.925 8.6625C10.8342 8.86611 10.721 9.05897 10.5875 9.2375L10.15 9.7625C10 9.925 9.85 10.1 9.7125 10.275C9.57918 10.4492 9.46596 10.6379 9.375 10.8375C9.28828 11.0342 9.24562 11.2475 9.25 11.4625V12.2875H10.75V11.675C10.7542 11.4917 10.8013 11.3119 10.8875 11.15C10.9902 10.9701 11.1073 10.7987 11.2375 10.6375L11.6875 10.0875C11.8513 9.89825 12.0017 9.69776 12.1375 9.4875C12.2812 9.2731 12.3987 9.0423 12.4875 8.8C12.5787 8.54314 12.6252 8.27256 12.625 8C12.6272 7.71603 12.5851 7.43345 12.5 7.1625C12.4056 6.90439 12.2563 6.66983 12.0625 6.475V6.475ZM9.25 13.0375H10.7125V14.5H9.25V13.0375Z" fill="#808080"/>
</svg>
