<svg width="14" height="14" viewBox="0 0 14 14" fill="none" xmlns="http://www.w3.org/2000/svg">
<path d="M7.52465 6.9971L11.4643 3.05365C11.5338 2.98381 11.5727 2.88926 11.5727 2.79073C11.5726 2.6922 11.5335 2.59771 11.4639 2.52795C11.3246 2.38935 11.0793 2.38865 10.9386 2.52865L7 6.4721L3.06005 2.5276C2.92005 2.38935 2.6747 2.39005 2.5354 2.5283C2.50083 2.56274 2.47346 2.60372 2.45489 2.64885C2.43632 2.69398 2.42693 2.74235 2.42725 2.79115C2.42725 2.89055 2.46575 2.98365 2.5354 3.0526L6.475 6.99675L2.53575 10.9413C2.46624 11.0112 2.42731 11.1059 2.42751 11.2045C2.4277 11.3031 2.46701 11.3976 2.5368 11.4673C2.60435 11.5342 2.6999 11.5727 2.7986 11.5727H2.8007C2.89975 11.5723 2.9953 11.5335 3.06145 11.4659L7 7.52245L10.94 11.467C11.0096 11.5363 11.1027 11.5748 11.2014 11.5748C11.2502 11.5749 11.2986 11.5654 11.3437 11.5468C11.3888 11.5282 11.4298 11.5008 11.4643 11.4663C11.4988 11.4318 11.5262 11.3908 11.5448 11.3457C11.5634 11.3006 11.5729 11.2522 11.5728 11.2034C11.5728 11.1044 11.5343 11.0109 11.4643 10.942L7.52465 6.9971Z" fill="#152DB5"/>
</svg>
