<svg width="20" height="20" viewBox="0 0 20 20" fill="none" xmlns="http://www.w3.org/2000/svg">
<path d="M10 1C14.8078 1 19 4.96901 19 9.55001C19 14.0536 14.9023 17.5978 10 17.5978C8.95149 17.5984 7.90953 17.4325 6.91301 17.1064C6.49541 17.5114 6.35231 17.6491 5.46581 18.5041C4.82681 18.9865 4.2256 19.1503 3.6883 18.8461C3.1465 18.5401 2.9836 17.9443 3.0943 17.1595L3.4543 15.0724C1.891 13.6018 1 11.6578 1 9.55001C1 4.96901 5.19131 1 10 1ZM10 2.26C5.87261 2.26 2.26 5.68001 2.26 9.55001C2.26 11.3905 3.0808 13.0852 4.52801 14.347L4.54601 14.3623L4.81331 14.5945L4.75301 14.9455L4.62881 15.6691L4.59551 15.8617L4.339 17.3539C4.32388 17.4544 4.31486 17.5557 4.31201 17.6572V17.7427C4.31201 17.7472 4.31111 17.749 4.3102 17.7499C4.3165 17.7409 4.43891 17.7022 4.64861 17.5492L6.60161 15.6538L6.97421 15.7942C7.94209 16.1554 8.96695 16.3398 10 16.3387C14.2444 16.3387 17.74 13.3147 17.74 9.55001C17.74 5.68091 14.1274 2.26 10 2.26ZM5.70431 8.03171C5.88562 8.02509 6.06641 8.05508 6.23587 8.11989C6.40533 8.18471 6.55999 8.28302 6.6906 8.40895C6.82122 8.53488 6.92511 8.68584 6.99607 8.85282C7.06702 9.01981 7.1036 9.19938 7.1036 9.38081C7.1036 9.56225 7.06702 9.74182 6.99607 9.9088C6.92511 10.0758 6.82122 10.2267 6.6906 10.3527C6.55999 10.4786 6.40533 10.5769 6.23587 10.6417C6.06641 10.7065 5.88562 10.7365 5.70431 10.7299C5.35503 10.7172 5.02432 10.5694 4.78173 10.3178C4.53914 10.0662 4.40359 9.73032 4.40359 9.38081C4.40359 9.0313 4.53914 8.69542 4.78173 8.4438C5.02432 8.19219 5.35503 8.04447 5.70431 8.03171ZM10.2025 8.03171C10.3838 8.02509 10.5646 8.05508 10.7341 8.11989C10.9035 8.18471 11.0582 8.28302 11.1888 8.40895C11.3194 8.53488 11.4233 8.68584 11.4943 8.85282C11.5652 9.01981 11.6018 9.19938 11.6018 9.38081C11.6018 9.56225 11.5652 9.74182 11.4943 9.9088C11.4233 10.0758 11.3194 10.2267 11.1888 10.3527C11.0582 10.4786 10.9035 10.5769 10.7341 10.6417C10.5646 10.7065 10.3838 10.7365 10.2025 10.7299C9.85324 10.7172 9.52252 10.5694 9.27994 10.3178C9.03735 10.0662 8.9018 9.73032 8.9018 9.38081C8.9018 9.0313 9.03735 8.69542 9.27994 8.4438C9.52252 8.19219 9.85324 8.04447 10.2025 8.03171ZM14.6998 8.03171C14.8811 8.02509 15.0619 8.05508 15.2314 8.11989C15.4008 8.18471 15.5555 8.28302 15.6861 8.40895C15.8167 8.53488 15.9206 8.68584 15.9916 8.85282C16.0625 9.01981 16.0991 9.19938 16.0991 9.38081C16.0991 9.56225 16.0625 9.74182 15.9916 9.9088C15.9206 10.0758 15.8167 10.2267 15.6861 10.3527C15.5555 10.4786 15.4008 10.5769 15.2314 10.6417C15.0619 10.7065 14.8811 10.7365 14.6998 10.7299C14.3505 10.7172 14.0198 10.5694 13.7772 10.3178C13.5347 10.0662 13.3991 9.73032 13.3991 9.38081C13.3991 9.0313 13.5347 8.69542 13.7772 8.4438C14.0198 8.19219 14.3505 8.04447 14.6998 8.03171Z" fill="#B3B3B3"/>
</svg>
