<svg width="20" height="20" viewBox="0 0 20 20" fill="none" xmlns="http://www.w3.org/2000/svg">
<path d="M16.25 14.9H16.15V15V17.4H3.85V15V14.9H3.75H2.5H2.4V15V17.5C2.4 17.858 2.54223 18.2014 2.79541 18.4546C3.04858 18.7078 3.39196 18.85 3.75 18.85H16.25C16.608 18.85 16.9514 18.7078 17.2046 18.4546C17.4578 18.2014 17.6 17.858 17.6 17.5V15V14.9H17.5H16.25ZM16.3207 8.82071L16.3914 8.75L16.3207 8.67929L15.4395 7.79804L15.3688 7.72738L15.2981 7.79799L10.725 12.3651V1.25V1.15H10.625H9.375H9.275V1.25V12.3651L4.70191 7.79799L4.6312 7.72738L4.56054 7.79804L3.67929 8.67929L3.60858 8.75L3.67929 8.82071L9.92929 15.0707L10 15.1414L10.0707 15.0707L16.3207 8.82071Z" fill="#1A1A1A" stroke="#1A1A1A" stroke-width="0.2"/>
</svg>
