<svg width="21" height="20" viewBox="0 0 21 20" fill="none" xmlns="http://www.w3.org/2000/svg">
<path d="M17.8027 10.4238C18.1309 9.99025 18.3125 9.459 18.3125 8.90626C18.3125 8.02931 17.8223 7.19923 17.0332 6.73634C16.8301 6.61719 16.5988 6.55448 16.3633 6.5547H11.6797L11.7969 4.15431C11.8242 3.57423 11.6191 3.02345 11.2207 2.60353C11.0252 2.39655 10.7893 2.23188 10.5276 2.11967C10.2659 2.00747 9.98395 1.95013 9.69922 1.95119C8.68359 1.95119 7.78516 2.63478 7.51562 3.6133L5.83789 9.68751H3.3125C2.9668 9.68751 2.6875 9.96681 2.6875 10.3125V17.4219C2.6875 17.7676 2.9668 18.0469 3.3125 18.0469H15.0566C15.2363 18.0469 15.4121 18.0117 15.5742 17.9414C16.5039 17.5449 17.1035 16.6367 17.1035 15.6289C17.1035 15.3828 17.0684 15.1406 16.998 14.9063C17.3262 14.4727 17.5078 13.9414 17.5078 13.3887C17.5078 13.1426 17.4727 12.9004 17.4023 12.666C17.7305 12.2324 17.9121 11.7012 17.9121 11.1485C17.9082 10.9024 17.873 10.6582 17.8027 10.4238ZM4.09375 16.6406V11.0938H5.67578V16.6406H4.09375ZM16.5234 9.74611L16.0957 10.1172L16.3672 10.6133C16.4566 10.7767 16.503 10.9602 16.502 11.1465C16.502 11.4688 16.3613 11.7754 16.1191 11.9863L15.6914 12.3574L15.9629 12.8535C16.0523 13.0169 16.0987 13.2004 16.0977 13.3867C16.0977 13.709 15.957 14.0156 15.7148 14.2266L15.2871 14.5977L15.5586 15.0938C15.648 15.2572 15.6944 15.4407 15.6934 15.627C15.6934 16.0645 15.4355 16.459 15.0371 16.6387H6.92578V11.0313L8.86914 3.99025C8.91925 3.80978 9.02682 3.65056 9.17555 3.53673C9.32428 3.42289 9.50607 3.36063 9.69336 3.35939C9.8418 3.35939 9.98828 3.40236 10.1055 3.49025C10.2988 3.63478 10.4023 3.85353 10.3906 4.08595L10.2031 7.96095H16.3438C16.6914 8.17384 16.9062 8.53322 16.9062 8.90626C16.9062 9.22853 16.7656 9.53322 16.5234 9.74611Z" fill="#1A1A1A"/>
</svg>
