<svg width="30" height="30" viewBox="0 0 30 30" fill="none" xmlns="http://www.w3.org/2000/svg">
<path d="M25.7375 23.6086L21.0207 18.8918L20.9634 18.8345L20.8955 18.8787C19.9105 19.5189 18.7542 19.9 17.5 19.9C14.1052 19.9 11.35 17.1448 11.35 13.75C11.35 10.3552 14.1052 7.6 17.5 7.6C20.8948 7.6 23.65 10.3552 23.65 13.75C23.65 15.0043 23.2689 16.1603 22.629 17.1325L22.5842 17.2005L22.6417 17.2581L27.3587 21.9874L25.7375 23.6086ZM8.65 11.15H2.6V8.85H8.65V11.15ZM2.6 17.4V15.1H8.65V17.4H2.6ZM21.35 13.75C21.35 11.6323 19.6177 9.9 17.5 9.9C15.3823 9.9 13.65 11.6323 13.65 13.75C13.65 15.8677 15.3823 17.6 17.5 17.6C19.6177 17.6 21.35 15.8677 21.35 13.75ZM14.9 21.35V23.65H2.6V21.35H14.9Z" fill="black" stroke="white" stroke-width="0.2"/>
</svg>
