<svg width="16" height="16" viewBox="0 0 16 16" fill="none" xmlns="http://www.w3.org/2000/svg">
<path d="M5.32599 2.33288C5.23877 2.42218 5.18994 2.54205 5.18994 2.66688C5.18994 2.79171 5.23877 2.91158 5.32599 3.00088L10.199 7.99988L5.32599 12.9979C5.23877 13.0872 5.18994 13.2071 5.18994 13.3319C5.18994 13.4567 5.23877 13.5766 5.32599 13.6659C5.36839 13.7094 5.41908 13.744 5.47507 13.7677C5.53106 13.7913 5.59122 13.8035 5.65199 13.8035C5.71277 13.8035 5.77293 13.7913 5.82892 13.7677C5.88491 13.744 5.9356 13.7094 5.97799 13.6659L11.16 8.34888C11.251 8.25551 11.3019 8.13027 11.3019 7.99988C11.3019 7.86949 11.251 7.74425 11.16 7.65088L5.97799 2.33388C5.9356 2.29034 5.88491 2.25573 5.82892 2.2321C5.77293 2.20846 5.71277 2.19629 5.65199 2.19629C5.59122 2.19629 5.53106 2.20846 5.47507 2.2321C5.41908 2.25573 5.36839 2.29034 5.32599 2.33388V2.33288Z" fill="#999999"/>
</svg>
