<svg width="16" height="16" viewBox="0 0 16 16" fill="none" xmlns="http://www.w3.org/2000/svg">
<path d="M14.4955 8.22044L8.49549 1.55377C8.24282 1.27244 7.75749 1.27244 7.50482 1.55377L1.50482 8.22044C1.41846 8.31617 1.36177 8.43493 1.34165 8.56228C1.32153 8.68963 1.33884 8.82008 1.39149 8.93777C1.49815 9.17844 1.73682 9.33311 2.00015 9.33311H3.33349V13.9998C3.33349 14.1766 3.40372 14.3462 3.52875 14.4712C3.65377 14.5962 3.82334 14.6664 4.00015 14.6664H6.00015C6.17696 14.6664 6.34653 14.5962 6.47156 14.4712C6.59658 14.3462 6.66682 14.1766 6.66682 13.9998V11.3331H9.33349V13.9998C9.33349 14.1766 9.40372 14.3462 9.52875 14.4712C9.65377 14.5962 9.82334 14.6664 10.0002 14.6664H12.0002C12.177 14.6664 12.3465 14.5962 12.4716 14.4712C12.5966 14.3462 12.6668 14.1766 12.6668 13.9998V9.33311H14.0002C14.1293 9.33366 14.2557 9.29663 14.3642 9.22654C14.4726 9.15645 14.5583 9.05632 14.6108 8.93837C14.6633 8.82042 14.6804 8.68973 14.6599 8.56226C14.6394 8.43478 14.5823 8.31601 14.4955 8.22044Z" fill="#0D1E80"/>
</svg>
