<svg width="30" height="24" viewBox="0 0 30 24" fill="none" xmlns="http://www.w3.org/2000/svg">
<path d="M15 24C21.6274 24 27 18.6274 27 12C27 5.37258 21.6274 0 15 0C8.37258 0 3 5.37258 3 12C3 18.6274 8.37258 24 15 24Z" fill="#FFCE31"/>
<path opacity="0.5" d="M4.68995 13.3983C4.68995 6.87407 9.69966 1.5731 16.1074 1.10708C15.8162 1.10708 15.4666 1.04883 15.1754 1.04883C9.05888 1.04883 4.10742 6.00029 4.10742 12.175C4.10742 13.9809 4.57344 15.7284 5.33072 17.243C4.92296 16.0197 4.68995 14.7381 4.68995 13.3983Z" fill="#89664C"/>
<path opacity="0.33" d="M19.6022 21.2629C25.0197 17.6512 26.6508 10.6027 23.5051 5.12695L24.0294 5.82598C27.4081 10.8357 26.01 17.6512 20.942 21.0881C19.4275 22.1367 17.7381 22.7192 16.0488 22.8939C17.3304 22.5444 18.4954 22.0202 19.6022 21.2629Z" fill="white"/>
<path opacity="0.5" d="M11.9707 8.38895V8.97147C12.5532 8.97147 13.0775 8.85497 13.6018 8.62196V7.80642C13.1358 8.15594 12.6115 8.33069 11.9707 8.38895ZM15.8154 4.60254H16.3396V17.1851H15.8154V4.60254ZM18.029 17.7093V19.3404H11.9707V19.9229H18.5532V17.7093H18.029Z" fill="#89664C"/>
<path opacity="0.33" d="M16.3401 17.1849H17.9712V17.7092H16.3401V17.1849ZM14.1848 4.6024H15.8159V4.07812H13.6023C13.6023 5.30143 12.612 6.29172 11.3887 6.29172V8.44706C11.5634 8.44706 11.7382 8.44706 11.9129 8.38881V6.75774C13.1945 6.81599 14.1848 5.8257 14.1848 4.6024ZM14.1848 17.7092V8.38881C14.01 8.50531 13.8353 8.56356 13.6605 8.68007V17.1849H11.4469V19.3403H11.9712V17.7092H14.1848Z" fill="white"/>
</svg>
