<svg width="30" height="24" viewBox="0 0 30 24" fill="none" xmlns="http://www.w3.org/2000/svg">
<path d="M15 24C21.6274 24 27 18.6274 27 12C27 5.37258 21.6274 0 15 0C8.37258 0 3 5.37258 3 12C3 18.6274 8.37258 24 15 24Z" fill="#D3976E"/>
<path opacity="0.5" d="M4.68995 13.3983C4.68995 6.87407 9.69966 1.5731 16.1074 1.10708C15.8162 1.10708 15.4666 1.04883 15.1754 1.04883C9.05888 1.04883 4.10742 6.00029 4.10742 12.175C4.10742 13.9809 4.57344 15.7284 5.33072 17.243C4.92296 16.0197 4.68995 14.7381 4.68995 13.3983Z" fill="#3E4347"/>
<path opacity="0.33" d="M19.6022 21.2629C25.0197 17.6512 26.6508 10.6027 23.5051 5.12695L24.0294 5.82598C27.4081 10.8357 26.01 17.6512 20.942 21.0881C19.4275 22.1367 17.7381 22.7192 16.0488 22.8939C17.3304 22.5444 18.4954 22.0202 19.6022 21.2629Z" fill="white"/>
<path opacity="0.5" d="M14.7079 6.23257C13.4846 6.23257 12.4943 7.22287 12.4943 8.38791H10.9215C10.9215 8.56267 10.8633 8.73743 10.8633 8.91218H13.0769C13.0769 7.68888 14.0672 6.69859 15.2905 6.69859C15.7565 6.69859 16.1643 6.87335 16.5138 7.10636C16.106 6.64034 15.4652 6.23257 14.7079 6.23257ZM18.1448 12.2326C19.0769 11.417 19.6594 10.252 19.6594 8.97044C19.6594 7.63063 19.0769 6.40733 18.0866 5.5918C18.7274 6.34908 19.1351 7.33937 19.1351 8.38791C19.1351 9.66947 18.5526 10.8928 17.6206 11.65C18.5526 12.4656 19.1351 13.6306 19.1351 14.9122C19.1351 17.3005 17.1545 19.2811 14.7662 19.2811C13.7177 19.2811 12.7274 18.8733 11.9701 18.2326C12.7856 19.1646 13.9507 19.8054 15.3487 19.8054C17.7371 19.8054 19.7176 17.8248 19.7176 15.4365C19.6594 14.2132 19.0769 13.0481 18.1448 12.2326Z" fill="#3E4347"/>
<path opacity="0.33" d="M15.2913 5.30162C16.3398 5.30162 17.3301 5.70938 18.0874 6.35016C17.2719 5.41812 16.1068 4.77734 14.7088 4.77734C12.3204 4.77734 10.3398 6.75793 10.3398 9.14628H10.9224C11.2136 6.99094 13.0195 5.30162 15.2913 5.30162ZM17.4466 9.67055C17.4466 8.91327 17.0971 8.27249 16.5146 7.86472C16.7476 8.21424 16.9224 8.622 16.9224 9.08802C16.9224 10.3113 15.9321 11.3016 14.7088 11.3016V13.5152C14.8835 13.5152 15.0583 13.5735 15.233 13.5735V11.8841C16.4563 11.8841 17.4466 10.8938 17.4466 9.67055ZM15.2913 18.4084C16.5146 18.4084 17.5049 17.4181 17.5049 16.1948C17.5049 15.4375 17.1554 14.7968 16.5729 14.389C16.8059 14.7385 16.9806 15.1463 16.9806 15.6123C16.9806 16.8356 15.9903 17.8259 14.767 17.8259C14.301 17.8259 13.8932 17.6511 13.5437 17.4181C13.8932 18.0589 14.534 18.4084 15.2913 18.4084ZM12.6117 16.2531C12.5534 16.0783 12.5534 15.9036 12.5534 15.7288H10.3398C10.3398 17.0686 10.9224 18.2919 11.9127 19.1074C11.2719 18.3502 10.8641 17.3599 10.8641 16.3113L12.6117 16.2531Z" fill="white"/>
</svg>
