<svg width="26" height="26" viewBox="0 0 26 26" fill="none" xmlns="http://www.w3.org/2000/svg">
<path d="M7.58333 4.43268H7.68333V4.33268V2.26602H9.65V4.33268V4.43268H9.75H16.25H16.35V4.33268V2.26602H18.3167V4.33268V4.43268H18.4167H20.5833C21.1314 4.43268 21.6571 4.65042 22.0447 5.03799C22.4323 5.42557 22.65 5.95123 22.65 6.49935V21.666C22.65 22.2141 22.4323 22.7398 22.0447 23.1274C21.6571 23.5149 21.1314 23.7327 20.5833 23.7327H5.41667C4.86855 23.7327 4.34289 23.5149 3.95531 23.1274C3.56774 22.7398 3.35 22.2141 3.35 21.666V6.49935C3.35 5.95123 3.56774 5.42557 3.95531 5.03799C4.34289 4.65042 4.86855 4.43268 5.41667 4.43268H7.58333ZM5.41667 10.7327H5.31667V10.8327V21.666V21.766H5.41667H20.5833H20.6833V21.666V10.8327V10.7327H20.5833H5.41667ZM5.41667 6.39935H5.31667V6.49935V8.66602V8.76602H5.41667H20.5833H20.6833V8.66602V6.49935V6.39935H20.5833H5.41667ZM18.3167 19.3993H16.35V17.4327H18.3167V19.3993ZM13.9833 19.3993H12.0167V17.4327H13.9833V19.3993ZM9.65 19.3993H7.68333V17.4327H9.65V19.3993ZM18.3167 15.066H16.35V13.0993H18.3167V15.066ZM13.9833 15.066H12.0167V13.0993H13.9833V15.066ZM9.65 15.066H7.68333V13.0993H9.65V15.066Z" fill="black" stroke="white" stroke-width="0.2"/>
</svg>
