<svg width="31" height="30" viewBox="0 0 31 30" fill="none" xmlns="http://www.w3.org/2000/svg">
<path d="M26.75 7.5H15.5L12.2994 4.29937C11.9478 3.94772 11.471 3.75011 10.9738 3.75H4.25C3.75272 3.75 3.27581 3.94754 2.92417 4.29917C2.57254 4.65081 2.375 5.12772 2.375 5.625V24.375C2.375 24.8723 2.57254 25.3492 2.92417 25.7008C3.27581 26.0525 3.75272 26.25 4.25 26.25H15.5C15.9973 26.25 16.4742 26.0525 16.8258 25.7008C17.1775 25.3492 17.375 24.8723 17.375 24.375V15.7781L19.8031 18.1969L21.125 16.875L16.4375 12.1875L11.75 16.875L13.0719 18.1969L15.5 15.7781V24.375H4.25V5.625H10.9738L14.7238 9.375H26.75V24.375H21.125V26.25H26.75C27.2473 26.25 27.7242 26.0525 28.0758 25.7008C28.4275 25.3492 28.625 24.8723 28.625 24.375V9.375C28.625 8.87772 28.4275 8.40081 28.0758 8.04918C27.7242 7.69754 27.2473 7.5 26.75 7.5Z" fill="black"/>
</svg>
