<svg width="30" height="30" viewBox="0 0 30 30" fill="none" xmlns="http://www.w3.org/2000/svg">
<path fill-rule="evenodd" clip-rule="evenodd" d="M19.8187 2.1375L25.9688 8.325L26.25 9V27.1875L25.3125 28.125H4.6875L3.75 27.1875V2.8125L4.6875 1.875H19.1625L19.8187 2.1375ZM18.75 9.375H24.375L18.75 3.75V9.375ZM5.625 3.75V26.25H24.375V11.25H17.8125L16.875 10.3125V3.75H5.625ZM9.49125 17.8744L12.8981 14.4469L11.5688 13.125L7.5 17.2106V18.5362L11.5706 22.6125L12.8962 21.2869L9.49125 17.8744ZM16.5 14.4638L17.8125 13.1344L21.9169 17.2125V18.5419L17.8125 22.6163L16.4906 21.2869L19.9237 17.8744L16.5 14.4638Z" fill="#1A1A1A"/>
</svg>
