<svg width="26" height="26" viewBox="0 0 26 26" fill="none" xmlns="http://www.w3.org/2000/svg">
<path d="M12.9993 13.0002C13.5977 13.0002 14.0827 12.5151 14.0827 11.9168C14.0827 11.3185 13.5977 10.8335 12.9993 10.8335C12.401 10.8335 11.916 11.3185 11.916 11.9168C11.916 12.5151 12.401 13.0002 12.9993 13.0002Z" fill="#4D4D4D"/>
<path d="M17.3333 13.0002C17.9316 13.0002 18.4167 12.5151 18.4167 11.9168C18.4167 11.3185 17.9316 10.8335 17.3333 10.8335C16.735 10.8335 16.25 11.3185 16.25 11.9168C16.25 12.5151 16.735 13.0002 17.3333 13.0002Z" fill="#4D4D4D"/>
<path d="M8.66732 13.0002C9.26563 13.0002 9.75065 12.5151 9.75065 11.9168C9.75065 11.3185 9.26563 10.8335 8.66732 10.8335C8.06901 10.8335 7.58398 11.3185 7.58398 11.9168C7.58398 12.5151 8.06901 13.0002 8.66732 13.0002Z" fill="#4D4D4D"/>
<path d="M20.5827 3.25H5.41602C4.55406 3.25 3.72741 3.59241 3.11792 4.2019C2.50843 4.8114 2.16602 5.63805 2.16602 6.5V22.75C2.16635 22.942 2.21768 23.1304 2.31476 23.296C2.41184 23.4616 2.55118 23.5984 2.71852 23.6925C2.88043 23.7843 3.06324 23.8328 3.24935 23.8333C3.44379 23.8333 3.63463 23.7809 3.80185 23.6817L8.66602 20.735C8.84581 20.628 9.05276 20.5753 9.26185 20.5833H20.5827C21.4446 20.5833 22.2713 20.2409 22.8808 19.6314C23.4903 19.0219 23.8327 18.1953 23.8327 17.3333V6.5C23.8327 5.63805 23.4903 4.8114 22.8808 4.2019C22.2713 3.59241 21.4446 3.25 20.5827 3.25ZM21.666 17.3333C21.666 17.6207 21.5519 17.8962 21.3487 18.0994C21.1455 18.3025 20.87 18.4167 20.5827 18.4167H9.26185C8.67016 18.4162 8.08956 18.5773 7.58268 18.8825L4.33268 20.8325V6.5C4.33268 6.21268 4.44682 5.93713 4.64998 5.73397C4.85315 5.5308 5.1287 5.41667 5.41602 5.41667H20.5827C20.87 5.41667 21.1455 5.5308 21.3487 5.73397C21.5519 5.93713 21.666 6.21268 21.666 6.5V17.3333Z" fill="#4D4D4D"/>
</svg>
