<svg width="30" height="30" viewBox="0 0 30 30" fill="none" xmlns="http://www.w3.org/2000/svg">
<path d="M24.3597 18L19.3602 22.704C19.2885 22.7716 19.2308 22.8526 19.1904 22.9425C19.15 23.0323 19.1277 23.1292 19.1248 23.2277C19.1219 23.3262 19.1384 23.4243 19.1734 23.5164C19.2083 23.6085 19.2611 23.6928 19.3287 23.7645C19.3962 23.8362 19.4773 23.8939 19.5671 23.9343C19.657 23.9747 19.7539 23.997 19.8524 23.9999C19.9509 24.0028 20.049 23.9863 20.1411 23.9513C20.2332 23.9163 20.3175 23.8636 20.3892 23.796L26.7642 17.796C26.8386 17.7259 26.898 17.6413 26.9385 17.5474C26.9791 17.4535 27 17.3523 27 17.25C27 17.1477 26.9791 17.0465 26.9385 16.9526C26.898 16.8587 26.8386 16.7741 26.7642 16.704L20.3892 10.704C20.3175 10.6364 20.2332 10.5837 20.1411 10.5487C20.049 10.5137 19.9509 10.4972 19.8524 10.5001C19.7539 10.503 19.657 10.5253 19.5671 10.5657C19.4773 10.6061 19.3962 10.6638 19.3287 10.7355C19.2611 10.8072 19.2083 10.8915 19.1734 10.9836C19.1384 11.0757 19.1219 11.1738 19.1248 11.2723C19.1277 11.3708 19.15 11.4677 19.1904 11.5575C19.2308 11.6474 19.2885 11.7284 19.3602 11.796L24.3597 16.5H7.49968C6.70403 16.5 5.94097 16.1839 5.37836 15.6213C4.81575 15.0587 4.49968 14.2956 4.49968 13.5V6.75C4.49968 6.55109 4.42067 6.36032 4.28001 6.21967C4.13936 6.07902 3.9486 6 3.74968 6C3.55077 6 3.36 6.07902 3.21935 6.21967C3.0787 6.36032 2.99968 6.55109 2.99968 6.75V13.5C2.99968 14.6935 3.47379 15.8381 4.3177 16.682C5.16162 17.5259 6.30621 18 7.49968 18H24.3597Z" fill="#B3B3B3"/>
</svg>
