<svg width="20" height="20" viewBox="0 0 20 20" fill="none" xmlns="http://www.w3.org/2000/svg">
<path d="M6.25 7.50042C6.91304 7.50042 7.54893 7.23703 8.01777 6.76818C8.48661 6.29934 8.75 5.66346 8.75 5.00042C8.75 4.33738 8.48661 3.70149 8.01777 3.23265C7.54893 2.76381 6.91304 2.50042 6.25 2.50042C5.58696 2.50042 4.95107 2.76381 4.48223 3.23265C4.01339 3.70149 3.75 4.33738 3.75 5.00042C3.75 5.66346 4.01339 6.29934 4.48223 6.76818C4.95107 7.23703 5.58696 7.50042 6.25 7.50042ZM6.25 6.25042C5.91848 6.25042 5.60054 6.11872 5.36612 5.8843C5.1317 5.64988 5 5.33194 5 5.00042C5 4.6689 5.1317 4.35095 5.36612 4.11653C5.60054 3.88211 5.91848 3.75042 6.25 3.75042C6.58152 3.75042 6.89946 3.88211 7.13388 4.11653C7.3683 4.35095 7.5 4.6689 7.5 5.00042C7.5 5.33194 7.3683 5.64988 7.13388 5.8843C6.89946 6.11872 6.58152 6.25042 6.25 6.25042ZM2.5 9.79208C2.5 8.98708 3.15333 8.33375 3.95833 8.33375H8.54167C9.34667 8.33375 10 8.98708 10 9.79208V13.7504C10 14.745 9.60491 15.6988 8.90165 16.4021C8.19839 17.1053 7.24456 17.5004 6.25 17.5004C5.25544 17.5004 4.30161 17.1053 3.59835 16.4021C2.89509 15.6988 2.5 14.745 2.5 13.7504V9.79208ZM3.95833 9.58375C3.90308 9.58375 3.85009 9.6057 3.81102 9.64477C3.77195 9.68384 3.75 9.73683 3.75 9.79208V13.7504C3.75 14.4135 4.01339 15.0493 4.48223 15.5182C4.95107 15.987 5.58696 16.2504 6.25 16.2504C6.91304 16.2504 7.54893 15.987 8.01777 15.5182C8.48661 15.0493 8.75 14.4135 8.75 13.7504V9.79208C8.75 9.73683 8.72805 9.68384 8.68898 9.64477C8.64991 9.6057 8.59692 9.58375 8.54167 9.58375H3.95833ZM8.7725 7.17875C9.15291 7.39281 9.58273 7.50353 10.0192 7.49991C10.4557 7.4963 10.8836 7.37846 11.2604 7.15812C11.6372 6.93779 11.9498 6.62263 12.167 6.24401C12.3842 5.86539 12.4985 5.4365 12.4985 5C12.4985 4.5635 12.3842 4.13461 12.167 3.75599C11.9498 3.37737 11.6372 3.06221 11.2604 2.84188C10.8836 2.62154 10.4557 2.50371 10.0192 2.50009C9.58273 2.49647 9.15291 2.60719 8.7725 2.82125C9.045 3.13625 9.25917 3.50292 9.39917 3.90458C9.58952 3.80029 9.80375 3.74737 10.0208 3.75101C10.2378 3.75465 10.4501 3.81474 10.6369 3.92536C10.8236 4.03599 10.9783 4.19333 11.0858 4.3819C11.1933 4.57048 11.2498 4.78378 11.2498 5.00083C11.2498 5.21788 11.1933 5.43119 11.0858 5.61977C10.9783 5.80834 10.8236 5.96568 10.6369 6.0763C10.4501 6.18692 10.2378 6.24701 10.0208 6.25066C9.80375 6.2543 9.58952 6.20137 9.39917 6.09708C9.26045 6.49397 9.04782 6.861 8.7725 7.17875ZM9.05 17.3788C9.60476 17.524 10.1854 17.5401 10.7474 17.4258C11.3094 17.3116 11.8376 17.0699 12.2915 16.7195C12.7455 16.369 13.113 15.9192 13.3658 15.4044C13.6187 14.8897 13.7501 14.3239 13.75 13.7504V9.79208C13.75 9.40531 13.5964 9.03438 13.3229 8.76089C13.0494 8.4874 12.6784 8.33375 12.2917 8.33375H10.3083C10.5942 8.67958 10.78 9.11125 10.8233 9.58375H12.29C12.3453 9.58375 12.3982 9.6057 12.4373 9.64477C12.4764 9.68384 12.4983 9.73683 12.4983 9.79208V13.7504C12.4984 14.3972 12.2477 15.0188 11.7991 15.4846C11.3505 15.9505 10.7388 16.2244 10.0925 16.2487C9.81 16.6821 9.4575 17.0638 9.04917 17.3788H9.05ZM12.5225 7.17875C12.9029 7.39281 13.3327 7.50353 13.7692 7.49991C14.2057 7.4963 14.6336 7.37846 15.0104 7.15812C15.3872 6.93779 15.6998 6.62263 15.917 6.24401C16.1342 5.86539 16.2485 5.4365 16.2485 5C16.2485 4.5635 16.1342 4.13461 15.917 3.75599C15.6998 3.37737 15.3872 3.06221 15.0104 2.84188C14.6336 2.62154 14.2057 2.50371 13.7692 2.50009C13.3327 2.49647 12.9029 2.60719 12.5225 2.82125C12.795 3.13625 13.0092 3.50292 13.1492 3.90458C13.3395 3.80029 13.5537 3.74737 13.7708 3.75101C13.9878 3.75465 14.2001 3.81474 14.3869 3.92536C14.5736 4.03599 14.7283 4.19333 14.8358 4.3819C14.9433 4.57048 14.9998 4.78378 14.9998 5.00083C14.9998 5.21788 14.9433 5.43119 14.8358 5.61977C14.7283 5.80834 14.5736 5.96568 14.3869 6.0763C14.2001 6.18692 13.9878 6.24701 13.7708 6.25066C13.5537 6.2543 13.3395 6.20137 13.1492 6.09708C13.0105 6.49397 12.7978 6.861 12.5225 7.17875ZM12.8 17.3788C13.3548 17.524 13.9354 17.5401 14.4974 17.4258C15.0594 17.3116 15.5876 17.0699 16.0416 16.7195C16.4955 16.369 16.863 15.9192 17.1158 15.4044C17.3687 14.8897 17.5001 14.3239 17.5 13.7504V9.79208C17.5 9.40531 17.3464 9.03438 17.0729 8.76089C16.7994 8.4874 16.4284 8.33375 16.0417 8.33375H14.0583C14.3442 8.67958 14.5308 9.11125 14.5733 9.58375H16.04C16.0953 9.58375 16.1482 9.6057 16.1873 9.64477C16.2264 9.68384 16.2483 9.73683 16.2483 9.79208V13.7504C16.2484 14.3972 15.9977 15.0188 15.5491 15.4846C15.1005 15.9505 14.4888 16.2244 13.8425 16.2487C13.56 16.6821 13.2075 17.0638 12.7992 17.3788H12.8Z" fill="#B3B3B3"/>
</svg>
