<svg width="30" height="30" viewBox="0 0 30 30" fill="none" xmlns="http://www.w3.org/2000/svg">
<path d="M26.25 12.1875H28.125V14.0625H26.25V12.1875ZM22.2919 4.49719L23.6175 3.17062L24.9431 4.49719L23.6175 5.82281L22.2919 4.49719ZM14.0625 0H15.9375V1.875H14.0625V0ZM6.3825 5.84438L5.05687 4.51781L6.3825 3.19219L7.70813 4.51875L6.3825 5.84438ZM1.875 12.1875H3.75V14.0625H1.875V12.1875ZM18.75 12.1875H15.9375V9.375H14.0625V12.1875H11.25V14.0625H14.0625V16.875H15.9375V14.0625H18.75V12.1875ZM12.1875 28.125H17.8125V30H12.1875V28.125ZM10.3125 24.375H19.6875V26.25H10.3125V24.375Z" fill="white"/>
<path d="M15 3.75C9.84375 3.75 5.625 7.96875 5.625 13.125C5.625 17.25 7.5 19.0312 8.90625 20.25C9.84375 21.0938 10.3125 21.6562 10.3125 22.5H12.1875C12.1875 20.8125 11.1562 19.7812 10.125 18.8438C8.8125 17.7188 7.5 16.4062 7.5 13.125C7.5 9 10.875 5.625 15 5.625C19.125 5.625 22.5 9 22.5 13.125C22.5 16.4062 21.1875 17.7188 19.875 18.8438C18.8438 19.7812 17.8125 20.7188 17.8125 22.5H19.6875C19.6875 21.6562 20.1562 21.0938 21.0938 20.25C22.5 19.0312 24.375 17.25 24.375 13.125C24.375 7.96875 20.1562 3.75 15 3.75Z" fill="white"/>
</svg>
