<svg width="20" height="20" viewBox="0 0 20 20" fill="none" xmlns="http://www.w3.org/2000/svg">
<path d="M10.0003 9.99967C10.4606 9.99967 10.8337 9.62658 10.8337 9.16634C10.8337 8.7061 10.4606 8.33301 10.0003 8.33301C9.54009 8.33301 9.16699 8.7061 9.16699 9.16634C9.16699 9.62658 9.54009 9.99967 10.0003 9.99967Z" fill="#4D4D4D"/>
<path d="M13.3333 9.99967C13.7936 9.99967 14.1667 9.62658 14.1667 9.16634C14.1667 8.7061 13.7936 8.33301 13.3333 8.33301C12.8731 8.33301 12.5 8.7061 12.5 9.16634C12.5 9.62658 12.8731 9.99967 13.3333 9.99967Z" fill="#4D4D4D"/>
<path d="M6.66634 9.99967C7.12658 9.99967 7.49967 9.62658 7.49967 9.16634C7.49967 8.7061 7.12658 8.33301 6.66634 8.33301C6.2061 8.33301 5.83301 8.7061 5.83301 9.16634C5.83301 9.62658 6.2061 9.99967 6.66634 9.99967Z" fill="#4D4D4D"/>
<path d="M15.8337 2.5H4.16699C3.50395 2.5 2.86807 2.76339 2.39923 3.23223C1.93038 3.70107 1.66699 4.33696 1.66699 5V17.5C1.66725 17.6477 1.70673 17.7926 1.78141 17.92C1.85609 18.0474 1.96327 18.1526 2.09199 18.225C2.21654 18.2956 2.35717 18.3329 2.50033 18.3333C2.64989 18.3333 2.7967 18.293 2.92533 18.2167L6.66699 15.95C6.8053 15.8677 6.96449 15.8271 7.12533 15.8333H15.8337C16.4967 15.8333 17.1326 15.5699 17.6014 15.1011C18.0703 14.6323 18.3337 13.9964 18.3337 13.3333V5C18.3337 4.33696 18.0703 3.70107 17.6014 3.23223C17.1326 2.76339 16.4967 2.5 15.8337 2.5ZM16.667 13.3333C16.667 13.5543 16.5792 13.7663 16.4229 13.9226C16.2666 14.0789 16.0547 14.1667 15.8337 14.1667H7.12533C6.67018 14.1663 6.22357 14.2902 5.83366 14.525L3.33366 16.025V5C3.33366 4.77899 3.42146 4.56702 3.57774 4.41074C3.73402 4.25446 3.94598 4.16667 4.16699 4.16667H15.8337C16.0547 4.16667 16.2666 4.25446 16.4229 4.41074C16.5792 4.56702 16.667 4.77899 16.667 5V13.3333Z" fill="#4D4D4D"/>
</svg>
