<svg width="20" height="20" viewBox="0 0 20 20" fill="none" xmlns="http://www.w3.org/2000/svg">
<path d="M10.7334 5.73268H5.93337V4.26602H10.7334V5.73268ZM10.7334 9.06602H5.93337V7.59935H10.7334V9.06602ZM10.7334 10.9327V12.3993H5.93337V10.9327H10.7334Z" fill="white" stroke="#152DB5" stroke-width="0.2"/>
<path d="M5.83333 15.733H2.6V0.933008H14.0667V4.16634V4.26634H14.1667H17.4V19.0663H5.93333V15.833V15.733H5.83333ZM12.5 14.2663H12.6V14.1663V2.49967V2.39967H12.5H4.16667H4.06667V2.49967V14.1663V14.2663H4.16667H12.5ZM14.1667 5.73301H14.0667V5.83301V15.733H7.5H7.4V15.833V17.4997V17.5997H7.5H15.8333H15.9333V17.4997V5.83301V5.73301H15.8333H14.1667Z" fill="white" stroke="#152DB5" stroke-width="0.2"/>
</svg>
