<svg width="30" height="24" viewBox="0 0 30 24" fill="none" xmlns="http://www.w3.org/2000/svg">
<path d="M15 24C21.6274 24 27 18.6274 27 12C27 5.37258 21.6274 0 15 0C8.37258 0 3 5.37258 3 12C3 18.6274 8.37258 24 15 24Z" fill="#B2C1C0"/>
<path opacity="0.5" d="M4.68995 13.3983C4.68995 6.87407 9.69966 1.5731 16.1074 1.10708C15.8162 1.10708 15.4666 1.04883 15.1754 1.04883C9.05888 1.04883 4.10742 6.00029 4.10742 12.175C4.10742 13.9809 4.57344 15.7284 5.33072 17.243C4.92296 16.0197 4.68995 14.7381 4.68995 13.3983Z" fill="#3E4347"/>
<path opacity="0.33" d="M19.6022 21.2629C25.0197 17.6512 26.6508 10.6027 23.5051 5.12695C23.6799 5.35996 23.8547 5.59297 24.0294 5.88423C27.4081 10.8939 26.01 17.7095 20.942 21.1464C19.4275 22.1949 17.7381 22.7774 16.0488 22.9522C17.3304 22.5444 18.4954 22.0202 19.6022 21.2629Z" fill="white"/>
<path opacity="0.5" d="M14.7079 6.23291C13.4846 6.23291 12.4943 7.22321 12.4943 8.38826H10.9215C10.9215 8.56301 10.8633 8.73777 10.8633 8.91253H13.0769C13.0769 7.68922 14.0672 6.69893 15.2905 6.69893C15.7565 6.69893 16.1643 6.87369 16.5138 7.1067C16.106 6.64068 15.4652 6.23291 14.7079 6.23291ZM19.0769 19.3397H10.9215V19.9222H19.6594V17.7086H19.0769V19.3397ZM14.7079 12.8154C13.4846 12.8154 12.4943 13.8057 12.4943 15.029V17.2426H13.0186V15.6116C13.0186 14.3883 14.0089 13.398 15.2322 13.398C17.6206 13.398 19.6011 11.4174 19.6011 9.02903C19.6011 7.68923 19.0186 6.46592 18.0283 5.65039C18.6691 6.40767 19.0769 7.39796 19.0769 8.44651C19.0769 10.8349 17.1545 12.8154 14.7079 12.8154Z" fill="#3E4347"/>
<path opacity="0.33" d="M13.0777 17.1849H19.0777V17.7092H13.0777V17.1849ZM15.2913 11.1849C16.5146 11.1849 17.5049 10.1946 17.5049 8.97133C17.5049 8.21405 17.1554 7.57327 16.5729 7.1655C16.8059 7.51502 16.9806 7.92279 16.9806 8.38881C16.9806 9.61211 15.9903 10.6024 14.767 10.6024C12.3787 10.6024 10.3981 12.583 10.3981 14.9713V19.3403H10.9224V15.4956C10.9224 13.1073 12.8447 11.1849 15.2913 11.1849ZM15.2913 4.6024C16.3398 4.6024 17.3301 5.01016 18.0874 5.65094C17.2719 4.7189 16.1068 4.07812 14.7088 4.07812C12.3204 4.07812 10.3398 6.05871 10.3398 8.44706H10.9224C11.2136 6.29172 13.0195 4.6024 15.2913 4.6024Z" fill="white"/>
</svg>
